<mxfile host="Electron" agent="Mozilla/5.0 (Windows NT 10.0; Win64; x64) AppleWebKit/537.36 (KHTML, like Gecko) draw.io/27.0.9 Chrome/134.0.6998.205 Electron/35.4.0 Safari/537.36" version="27.0.9">
  <diagram name="Page-1" id="kxhwLO7z-S6nzoEPo-S2">
    <mxGraphModel dx="273" dy="618" grid="1" gridSize="10" guides="1" tooltips="1" connect="1" arrows="1" fold="1" page="1" pageScale="1" pageWidth="850" pageHeight="1100" math="0" shadow="0">
      <root>
        <mxCell id="0" />
        <mxCell id="1" parent="0" />
        <mxCell id="ExoKTfsHEBWrrc_0hEHO-1" value="gold.dim_customers" style="shape=table;startSize=30;container=1;collapsible=0;childLayout=tableLayout;fixedRows=1;rowLines=0;fontStyle=0;strokeColor=#d79b00;fontSize=16;fillColor=#ffe6cc;fontColor=#000000;" vertex="1" parent="1">
          <mxGeometry x="70" y="60" width="200" height="330" as="geometry" />
        </mxCell>
        <mxCell id="ExoKTfsHEBWrrc_0hEHO-2" value="" style="shape=tableRow;horizontal=0;startSize=0;swimlaneHead=0;swimlaneBody=0;top=0;left=0;bottom=0;right=0;collapsible=0;dropTarget=0;fillColor=none;points=[[0,0.5],[1,0.5]];portConstraint=eastwest;strokeColor=inherit;fontSize=16;" vertex="1" parent="ExoKTfsHEBWrrc_0hEHO-1">
          <mxGeometry y="30" width="200" height="30" as="geometry" />
        </mxCell>
        <mxCell id="ExoKTfsHEBWrrc_0hEHO-3" value="PK" style="shape=partialRectangle;html=1;whiteSpace=wrap;connectable=0;fillColor=none;top=0;left=0;bottom=0;right=0;overflow=hidden;pointerEvents=1;strokeColor=inherit;fontSize=16;" vertex="1" parent="ExoKTfsHEBWrrc_0hEHO-2">
          <mxGeometry width="44" height="30" as="geometry">
            <mxRectangle width="44" height="30" as="alternateBounds" />
          </mxGeometry>
        </mxCell>
        <mxCell id="ExoKTfsHEBWrrc_0hEHO-4" value="customer_key" style="shape=partialRectangle;html=1;whiteSpace=wrap;connectable=0;fillColor=none;top=0;left=0;bottom=0;right=0;align=left;spacingLeft=6;overflow=hidden;strokeColor=inherit;fontSize=16;" vertex="1" parent="ExoKTfsHEBWrrc_0hEHO-2">
          <mxGeometry x="44" width="156" height="30" as="geometry">
            <mxRectangle width="156" height="30" as="alternateBounds" />
          </mxGeometry>
        </mxCell>
        <mxCell id="ExoKTfsHEBWrrc_0hEHO-35" style="shape=tableRow;horizontal=0;startSize=0;swimlaneHead=0;swimlaneBody=0;top=0;left=0;bottom=0;right=0;collapsible=0;dropTarget=0;fillColor=none;points=[[0,0.5],[1,0.5]];portConstraint=eastwest;strokeColor=inherit;fontSize=16;" vertex="1" parent="ExoKTfsHEBWrrc_0hEHO-1">
          <mxGeometry y="60" width="200" height="30" as="geometry" />
        </mxCell>
        <mxCell id="ExoKTfsHEBWrrc_0hEHO-36" style="shape=partialRectangle;html=1;whiteSpace=wrap;connectable=0;fillColor=none;top=0;left=0;bottom=0;right=0;overflow=hidden;pointerEvents=1;strokeColor=inherit;fontSize=16;" vertex="1" parent="ExoKTfsHEBWrrc_0hEHO-35">
          <mxGeometry width="44" height="30" as="geometry">
            <mxRectangle width="44" height="30" as="alternateBounds" />
          </mxGeometry>
        </mxCell>
        <mxCell id="ExoKTfsHEBWrrc_0hEHO-37" value="customer_id" style="shape=partialRectangle;html=1;whiteSpace=wrap;connectable=0;fillColor=none;top=0;left=0;bottom=0;right=0;align=left;spacingLeft=6;overflow=hidden;strokeColor=inherit;fontSize=16;" vertex="1" parent="ExoKTfsHEBWrrc_0hEHO-35">
          <mxGeometry x="44" width="156" height="30" as="geometry">
            <mxRectangle width="156" height="30" as="alternateBounds" />
          </mxGeometry>
        </mxCell>
        <mxCell id="ExoKTfsHEBWrrc_0hEHO-8" value="" style="shape=tableRow;horizontal=0;startSize=0;swimlaneHead=0;swimlaneBody=0;top=0;left=0;bottom=0;right=0;collapsible=0;dropTarget=0;fillColor=none;points=[[0,0.5],[1,0.5]];portConstraint=eastwest;strokeColor=inherit;fontSize=16;" vertex="1" parent="ExoKTfsHEBWrrc_0hEHO-1">
          <mxGeometry y="90" width="200" height="30" as="geometry" />
        </mxCell>
        <mxCell id="ExoKTfsHEBWrrc_0hEHO-9" value="" style="shape=partialRectangle;html=1;whiteSpace=wrap;connectable=0;fillColor=none;top=0;left=0;bottom=0;right=0;overflow=hidden;strokeColor=inherit;fontSize=16;" vertex="1" parent="ExoKTfsHEBWrrc_0hEHO-8">
          <mxGeometry width="44" height="30" as="geometry">
            <mxRectangle width="44" height="30" as="alternateBounds" />
          </mxGeometry>
        </mxCell>
        <mxCell id="ExoKTfsHEBWrrc_0hEHO-10" value="customer_number" style="shape=partialRectangle;html=1;whiteSpace=wrap;connectable=0;fillColor=none;top=0;left=0;bottom=0;right=0;align=left;spacingLeft=6;overflow=hidden;strokeColor=inherit;fontSize=16;" vertex="1" parent="ExoKTfsHEBWrrc_0hEHO-8">
          <mxGeometry x="44" width="156" height="30" as="geometry">
            <mxRectangle width="156" height="30" as="alternateBounds" />
          </mxGeometry>
        </mxCell>
        <mxCell id="ExoKTfsHEBWrrc_0hEHO-11" style="shape=tableRow;horizontal=0;startSize=0;swimlaneHead=0;swimlaneBody=0;top=0;left=0;bottom=0;right=0;collapsible=0;dropTarget=0;fillColor=none;points=[[0,0.5],[1,0.5]];portConstraint=eastwest;strokeColor=inherit;fontSize=16;" vertex="1" parent="ExoKTfsHEBWrrc_0hEHO-1">
          <mxGeometry y="120" width="200" height="30" as="geometry" />
        </mxCell>
        <mxCell id="ExoKTfsHEBWrrc_0hEHO-12" style="shape=partialRectangle;html=1;whiteSpace=wrap;connectable=0;fillColor=none;top=0;left=0;bottom=0;right=0;overflow=hidden;strokeColor=inherit;fontSize=16;" vertex="1" parent="ExoKTfsHEBWrrc_0hEHO-11">
          <mxGeometry width="44" height="30" as="geometry">
            <mxRectangle width="44" height="30" as="alternateBounds" />
          </mxGeometry>
        </mxCell>
        <mxCell id="ExoKTfsHEBWrrc_0hEHO-13" value="first_name" style="shape=partialRectangle;html=1;whiteSpace=wrap;connectable=0;fillColor=none;top=0;left=0;bottom=0;right=0;align=left;spacingLeft=6;overflow=hidden;strokeColor=inherit;fontSize=16;" vertex="1" parent="ExoKTfsHEBWrrc_0hEHO-11">
          <mxGeometry x="44" width="156" height="30" as="geometry">
            <mxRectangle width="156" height="30" as="alternateBounds" />
          </mxGeometry>
        </mxCell>
        <mxCell id="ExoKTfsHEBWrrc_0hEHO-14" style="shape=tableRow;horizontal=0;startSize=0;swimlaneHead=0;swimlaneBody=0;top=0;left=0;bottom=0;right=0;collapsible=0;dropTarget=0;fillColor=none;points=[[0,0.5],[1,0.5]];portConstraint=eastwest;strokeColor=inherit;fontSize=16;" vertex="1" parent="ExoKTfsHEBWrrc_0hEHO-1">
          <mxGeometry y="150" width="200" height="30" as="geometry" />
        </mxCell>
        <mxCell id="ExoKTfsHEBWrrc_0hEHO-15" style="shape=partialRectangle;html=1;whiteSpace=wrap;connectable=0;fillColor=none;top=0;left=0;bottom=0;right=0;overflow=hidden;strokeColor=inherit;fontSize=16;" vertex="1" parent="ExoKTfsHEBWrrc_0hEHO-14">
          <mxGeometry width="44" height="30" as="geometry">
            <mxRectangle width="44" height="30" as="alternateBounds" />
          </mxGeometry>
        </mxCell>
        <mxCell id="ExoKTfsHEBWrrc_0hEHO-16" value="last_name" style="shape=partialRectangle;html=1;whiteSpace=wrap;connectable=0;fillColor=none;top=0;left=0;bottom=0;right=0;align=left;spacingLeft=6;overflow=hidden;strokeColor=inherit;fontSize=16;" vertex="1" parent="ExoKTfsHEBWrrc_0hEHO-14">
          <mxGeometry x="44" width="156" height="30" as="geometry">
            <mxRectangle width="156" height="30" as="alternateBounds" />
          </mxGeometry>
        </mxCell>
        <mxCell id="ExoKTfsHEBWrrc_0hEHO-17" style="shape=tableRow;horizontal=0;startSize=0;swimlaneHead=0;swimlaneBody=0;top=0;left=0;bottom=0;right=0;collapsible=0;dropTarget=0;fillColor=none;points=[[0,0.5],[1,0.5]];portConstraint=eastwest;strokeColor=inherit;fontSize=16;" vertex="1" parent="ExoKTfsHEBWrrc_0hEHO-1">
          <mxGeometry y="180" width="200" height="30" as="geometry" />
        </mxCell>
        <mxCell id="ExoKTfsHEBWrrc_0hEHO-18" style="shape=partialRectangle;html=1;whiteSpace=wrap;connectable=0;fillColor=none;top=0;left=0;bottom=0;right=0;overflow=hidden;strokeColor=inherit;fontSize=16;" vertex="1" parent="ExoKTfsHEBWrrc_0hEHO-17">
          <mxGeometry width="44" height="30" as="geometry">
            <mxRectangle width="44" height="30" as="alternateBounds" />
          </mxGeometry>
        </mxCell>
        <mxCell id="ExoKTfsHEBWrrc_0hEHO-19" value="country" style="shape=partialRectangle;html=1;whiteSpace=wrap;connectable=0;fillColor=none;top=0;left=0;bottom=0;right=0;align=left;spacingLeft=6;overflow=hidden;strokeColor=inherit;fontSize=16;" vertex="1" parent="ExoKTfsHEBWrrc_0hEHO-17">
          <mxGeometry x="44" width="156" height="30" as="geometry">
            <mxRectangle width="156" height="30" as="alternateBounds" />
          </mxGeometry>
        </mxCell>
        <mxCell id="ExoKTfsHEBWrrc_0hEHO-20" style="shape=tableRow;horizontal=0;startSize=0;swimlaneHead=0;swimlaneBody=0;top=0;left=0;bottom=0;right=0;collapsible=0;dropTarget=0;fillColor=none;points=[[0,0.5],[1,0.5]];portConstraint=eastwest;strokeColor=inherit;fontSize=16;" vertex="1" parent="ExoKTfsHEBWrrc_0hEHO-1">
          <mxGeometry y="210" width="200" height="30" as="geometry" />
        </mxCell>
        <mxCell id="ExoKTfsHEBWrrc_0hEHO-21" style="shape=partialRectangle;html=1;whiteSpace=wrap;connectable=0;fillColor=none;top=0;left=0;bottom=0;right=0;overflow=hidden;strokeColor=inherit;fontSize=16;" vertex="1" parent="ExoKTfsHEBWrrc_0hEHO-20">
          <mxGeometry width="44" height="30" as="geometry">
            <mxRectangle width="44" height="30" as="alternateBounds" />
          </mxGeometry>
        </mxCell>
        <mxCell id="ExoKTfsHEBWrrc_0hEHO-22" value="marital_status" style="shape=partialRectangle;html=1;whiteSpace=wrap;connectable=0;fillColor=none;top=0;left=0;bottom=0;right=0;align=left;spacingLeft=6;overflow=hidden;strokeColor=inherit;fontSize=16;" vertex="1" parent="ExoKTfsHEBWrrc_0hEHO-20">
          <mxGeometry x="44" width="156" height="30" as="geometry">
            <mxRectangle width="156" height="30" as="alternateBounds" />
          </mxGeometry>
        </mxCell>
        <mxCell id="ExoKTfsHEBWrrc_0hEHO-23" style="shape=tableRow;horizontal=0;startSize=0;swimlaneHead=0;swimlaneBody=0;top=0;left=0;bottom=0;right=0;collapsible=0;dropTarget=0;fillColor=none;points=[[0,0.5],[1,0.5]];portConstraint=eastwest;strokeColor=inherit;fontSize=16;" vertex="1" parent="ExoKTfsHEBWrrc_0hEHO-1">
          <mxGeometry y="240" width="200" height="30" as="geometry" />
        </mxCell>
        <mxCell id="ExoKTfsHEBWrrc_0hEHO-24" style="shape=partialRectangle;html=1;whiteSpace=wrap;connectable=0;fillColor=none;top=0;left=0;bottom=0;right=0;overflow=hidden;strokeColor=inherit;fontSize=16;" vertex="1" parent="ExoKTfsHEBWrrc_0hEHO-23">
          <mxGeometry width="44" height="30" as="geometry">
            <mxRectangle width="44" height="30" as="alternateBounds" />
          </mxGeometry>
        </mxCell>
        <mxCell id="ExoKTfsHEBWrrc_0hEHO-25" value="gender" style="shape=partialRectangle;html=1;whiteSpace=wrap;connectable=0;fillColor=none;top=0;left=0;bottom=0;right=0;align=left;spacingLeft=6;overflow=hidden;strokeColor=inherit;fontSize=16;" vertex="1" parent="ExoKTfsHEBWrrc_0hEHO-23">
          <mxGeometry x="44" width="156" height="30" as="geometry">
            <mxRectangle width="156" height="30" as="alternateBounds" />
          </mxGeometry>
        </mxCell>
        <mxCell id="ExoKTfsHEBWrrc_0hEHO-26" style="shape=tableRow;horizontal=0;startSize=0;swimlaneHead=0;swimlaneBody=0;top=0;left=0;bottom=0;right=0;collapsible=0;dropTarget=0;fillColor=none;points=[[0,0.5],[1,0.5]];portConstraint=eastwest;strokeColor=inherit;fontSize=16;" vertex="1" parent="ExoKTfsHEBWrrc_0hEHO-1">
          <mxGeometry y="270" width="200" height="30" as="geometry" />
        </mxCell>
        <mxCell id="ExoKTfsHEBWrrc_0hEHO-27" style="shape=partialRectangle;html=1;whiteSpace=wrap;connectable=0;fillColor=none;top=0;left=0;bottom=0;right=0;overflow=hidden;strokeColor=inherit;fontSize=16;" vertex="1" parent="ExoKTfsHEBWrrc_0hEHO-26">
          <mxGeometry width="44" height="30" as="geometry">
            <mxRectangle width="44" height="30" as="alternateBounds" />
          </mxGeometry>
        </mxCell>
        <mxCell id="ExoKTfsHEBWrrc_0hEHO-28" value="birthdate" style="shape=partialRectangle;html=1;whiteSpace=wrap;connectable=0;fillColor=none;top=0;left=0;bottom=0;right=0;align=left;spacingLeft=6;overflow=hidden;strokeColor=inherit;fontSize=16;" vertex="1" parent="ExoKTfsHEBWrrc_0hEHO-26">
          <mxGeometry x="44" width="156" height="30" as="geometry">
            <mxRectangle width="156" height="30" as="alternateBounds" />
          </mxGeometry>
        </mxCell>
        <mxCell id="ExoKTfsHEBWrrc_0hEHO-29" style="shape=tableRow;horizontal=0;startSize=0;swimlaneHead=0;swimlaneBody=0;top=0;left=0;bottom=0;right=0;collapsible=0;dropTarget=0;fillColor=none;points=[[0,0.5],[1,0.5]];portConstraint=eastwest;strokeColor=inherit;fontSize=16;" vertex="1" parent="ExoKTfsHEBWrrc_0hEHO-1">
          <mxGeometry y="300" width="200" height="30" as="geometry" />
        </mxCell>
        <mxCell id="ExoKTfsHEBWrrc_0hEHO-30" style="shape=partialRectangle;html=1;whiteSpace=wrap;connectable=0;fillColor=none;top=0;left=0;bottom=0;right=0;overflow=hidden;strokeColor=inherit;fontSize=16;" vertex="1" parent="ExoKTfsHEBWrrc_0hEHO-29">
          <mxGeometry width="44" height="30" as="geometry">
            <mxRectangle width="44" height="30" as="alternateBounds" />
          </mxGeometry>
        </mxCell>
        <mxCell id="ExoKTfsHEBWrrc_0hEHO-31" value="create_date" style="shape=partialRectangle;html=1;whiteSpace=wrap;connectable=0;fillColor=none;top=0;left=0;bottom=0;right=0;align=left;spacingLeft=6;overflow=hidden;strokeColor=inherit;fontSize=16;" vertex="1" parent="ExoKTfsHEBWrrc_0hEHO-29">
          <mxGeometry x="44" width="156" height="30" as="geometry">
            <mxRectangle width="156" height="30" as="alternateBounds" />
          </mxGeometry>
        </mxCell>
        <mxCell id="ExoKTfsHEBWrrc_0hEHO-38" value="gold.dim_products" style="shape=table;startSize=30;container=1;collapsible=0;childLayout=tableLayout;fixedRows=1;rowLines=0;fontStyle=0;strokeColor=#d79b00;fontSize=16;fillColor=#ffe6cc;fontColor=#000000;" vertex="1" parent="1">
          <mxGeometry x="590" y="60" width="200" height="360" as="geometry" />
        </mxCell>
        <mxCell id="ExoKTfsHEBWrrc_0hEHO-39" value="" style="shape=tableRow;horizontal=0;startSize=0;swimlaneHead=0;swimlaneBody=0;top=0;left=0;bottom=0;right=0;collapsible=0;dropTarget=0;fillColor=none;points=[[0,0.5],[1,0.5]];portConstraint=eastwest;strokeColor=inherit;fontSize=16;" vertex="1" parent="ExoKTfsHEBWrrc_0hEHO-38">
          <mxGeometry y="30" width="200" height="30" as="geometry" />
        </mxCell>
        <mxCell id="ExoKTfsHEBWrrc_0hEHO-40" value="PK" style="shape=partialRectangle;html=1;whiteSpace=wrap;connectable=0;fillColor=none;top=0;left=0;bottom=0;right=0;overflow=hidden;pointerEvents=1;strokeColor=inherit;fontSize=16;" vertex="1" parent="ExoKTfsHEBWrrc_0hEHO-39">
          <mxGeometry width="44" height="30" as="geometry">
            <mxRectangle width="44" height="30" as="alternateBounds" />
          </mxGeometry>
        </mxCell>
        <mxCell id="ExoKTfsHEBWrrc_0hEHO-41" value="product_key" style="shape=partialRectangle;html=1;whiteSpace=wrap;connectable=0;fillColor=none;top=0;left=0;bottom=0;right=0;align=left;spacingLeft=6;overflow=hidden;strokeColor=inherit;fontSize=16;" vertex="1" parent="ExoKTfsHEBWrrc_0hEHO-39">
          <mxGeometry x="44" width="156" height="30" as="geometry">
            <mxRectangle width="156" height="30" as="alternateBounds" />
          </mxGeometry>
        </mxCell>
        <mxCell id="ExoKTfsHEBWrrc_0hEHO-42" style="shape=tableRow;horizontal=0;startSize=0;swimlaneHead=0;swimlaneBody=0;top=0;left=0;bottom=0;right=0;collapsible=0;dropTarget=0;fillColor=none;points=[[0,0.5],[1,0.5]];portConstraint=eastwest;strokeColor=inherit;fontSize=16;" vertex="1" parent="ExoKTfsHEBWrrc_0hEHO-38">
          <mxGeometry y="60" width="200" height="30" as="geometry" />
        </mxCell>
        <mxCell id="ExoKTfsHEBWrrc_0hEHO-43" style="shape=partialRectangle;html=1;whiteSpace=wrap;connectable=0;fillColor=none;top=0;left=0;bottom=0;right=0;overflow=hidden;pointerEvents=1;strokeColor=inherit;fontSize=16;" vertex="1" parent="ExoKTfsHEBWrrc_0hEHO-42">
          <mxGeometry width="44" height="30" as="geometry">
            <mxRectangle width="44" height="30" as="alternateBounds" />
          </mxGeometry>
        </mxCell>
        <mxCell id="ExoKTfsHEBWrrc_0hEHO-44" value="product_id" style="shape=partialRectangle;html=1;whiteSpace=wrap;connectable=0;fillColor=none;top=0;left=0;bottom=0;right=0;align=left;spacingLeft=6;overflow=hidden;strokeColor=inherit;fontSize=16;" vertex="1" parent="ExoKTfsHEBWrrc_0hEHO-42">
          <mxGeometry x="44" width="156" height="30" as="geometry">
            <mxRectangle width="156" height="30" as="alternateBounds" />
          </mxGeometry>
        </mxCell>
        <mxCell id="ExoKTfsHEBWrrc_0hEHO-45" value="" style="shape=tableRow;horizontal=0;startSize=0;swimlaneHead=0;swimlaneBody=0;top=0;left=0;bottom=0;right=0;collapsible=0;dropTarget=0;fillColor=none;points=[[0,0.5],[1,0.5]];portConstraint=eastwest;strokeColor=inherit;fontSize=16;" vertex="1" parent="ExoKTfsHEBWrrc_0hEHO-38">
          <mxGeometry y="90" width="200" height="30" as="geometry" />
        </mxCell>
        <mxCell id="ExoKTfsHEBWrrc_0hEHO-46" value="" style="shape=partialRectangle;html=1;whiteSpace=wrap;connectable=0;fillColor=none;top=0;left=0;bottom=0;right=0;overflow=hidden;strokeColor=inherit;fontSize=16;" vertex="1" parent="ExoKTfsHEBWrrc_0hEHO-45">
          <mxGeometry width="44" height="30" as="geometry">
            <mxRectangle width="44" height="30" as="alternateBounds" />
          </mxGeometry>
        </mxCell>
        <mxCell id="ExoKTfsHEBWrrc_0hEHO-47" value="product_number" style="shape=partialRectangle;html=1;whiteSpace=wrap;connectable=0;fillColor=none;top=0;left=0;bottom=0;right=0;align=left;spacingLeft=6;overflow=hidden;strokeColor=inherit;fontSize=16;" vertex="1" parent="ExoKTfsHEBWrrc_0hEHO-45">
          <mxGeometry x="44" width="156" height="30" as="geometry">
            <mxRectangle width="156" height="30" as="alternateBounds" />
          </mxGeometry>
        </mxCell>
        <mxCell id="ExoKTfsHEBWrrc_0hEHO-48" style="shape=tableRow;horizontal=0;startSize=0;swimlaneHead=0;swimlaneBody=0;top=0;left=0;bottom=0;right=0;collapsible=0;dropTarget=0;fillColor=none;points=[[0,0.5],[1,0.5]];portConstraint=eastwest;strokeColor=inherit;fontSize=16;" vertex="1" parent="ExoKTfsHEBWrrc_0hEHO-38">
          <mxGeometry y="120" width="200" height="30" as="geometry" />
        </mxCell>
        <mxCell id="ExoKTfsHEBWrrc_0hEHO-49" style="shape=partialRectangle;html=1;whiteSpace=wrap;connectable=0;fillColor=none;top=0;left=0;bottom=0;right=0;overflow=hidden;strokeColor=inherit;fontSize=16;" vertex="1" parent="ExoKTfsHEBWrrc_0hEHO-48">
          <mxGeometry width="44" height="30" as="geometry">
            <mxRectangle width="44" height="30" as="alternateBounds" />
          </mxGeometry>
        </mxCell>
        <mxCell id="ExoKTfsHEBWrrc_0hEHO-50" value="product_name" style="shape=partialRectangle;html=1;whiteSpace=wrap;connectable=0;fillColor=none;top=0;left=0;bottom=0;right=0;align=left;spacingLeft=6;overflow=hidden;strokeColor=inherit;fontSize=16;" vertex="1" parent="ExoKTfsHEBWrrc_0hEHO-48">
          <mxGeometry x="44" width="156" height="30" as="geometry">
            <mxRectangle width="156" height="30" as="alternateBounds" />
          </mxGeometry>
        </mxCell>
        <mxCell id="ExoKTfsHEBWrrc_0hEHO-51" style="shape=tableRow;horizontal=0;startSize=0;swimlaneHead=0;swimlaneBody=0;top=0;left=0;bottom=0;right=0;collapsible=0;dropTarget=0;fillColor=none;points=[[0,0.5],[1,0.5]];portConstraint=eastwest;strokeColor=inherit;fontSize=16;" vertex="1" parent="ExoKTfsHEBWrrc_0hEHO-38">
          <mxGeometry y="150" width="200" height="30" as="geometry" />
        </mxCell>
        <mxCell id="ExoKTfsHEBWrrc_0hEHO-52" style="shape=partialRectangle;html=1;whiteSpace=wrap;connectable=0;fillColor=none;top=0;left=0;bottom=0;right=0;overflow=hidden;strokeColor=inherit;fontSize=16;" vertex="1" parent="ExoKTfsHEBWrrc_0hEHO-51">
          <mxGeometry width="44" height="30" as="geometry">
            <mxRectangle width="44" height="30" as="alternateBounds" />
          </mxGeometry>
        </mxCell>
        <mxCell id="ExoKTfsHEBWrrc_0hEHO-53" value="category_id" style="shape=partialRectangle;html=1;whiteSpace=wrap;connectable=0;fillColor=none;top=0;left=0;bottom=0;right=0;align=left;spacingLeft=6;overflow=hidden;strokeColor=inherit;fontSize=16;" vertex="1" parent="ExoKTfsHEBWrrc_0hEHO-51">
          <mxGeometry x="44" width="156" height="30" as="geometry">
            <mxRectangle width="156" height="30" as="alternateBounds" />
          </mxGeometry>
        </mxCell>
        <mxCell id="ExoKTfsHEBWrrc_0hEHO-54" style="shape=tableRow;horizontal=0;startSize=0;swimlaneHead=0;swimlaneBody=0;top=0;left=0;bottom=0;right=0;collapsible=0;dropTarget=0;fillColor=none;points=[[0,0.5],[1,0.5]];portConstraint=eastwest;strokeColor=inherit;fontSize=16;" vertex="1" parent="ExoKTfsHEBWrrc_0hEHO-38">
          <mxGeometry y="180" width="200" height="30" as="geometry" />
        </mxCell>
        <mxCell id="ExoKTfsHEBWrrc_0hEHO-55" style="shape=partialRectangle;html=1;whiteSpace=wrap;connectable=0;fillColor=none;top=0;left=0;bottom=0;right=0;overflow=hidden;strokeColor=inherit;fontSize=16;" vertex="1" parent="ExoKTfsHEBWrrc_0hEHO-54">
          <mxGeometry width="44" height="30" as="geometry">
            <mxRectangle width="44" height="30" as="alternateBounds" />
          </mxGeometry>
        </mxCell>
        <mxCell id="ExoKTfsHEBWrrc_0hEHO-56" value="category" style="shape=partialRectangle;html=1;whiteSpace=wrap;connectable=0;fillColor=none;top=0;left=0;bottom=0;right=0;align=left;spacingLeft=6;overflow=hidden;strokeColor=inherit;fontSize=16;" vertex="1" parent="ExoKTfsHEBWrrc_0hEHO-54">
          <mxGeometry x="44" width="156" height="30" as="geometry">
            <mxRectangle width="156" height="30" as="alternateBounds" />
          </mxGeometry>
        </mxCell>
        <mxCell id="ExoKTfsHEBWrrc_0hEHO-57" style="shape=tableRow;horizontal=0;startSize=0;swimlaneHead=0;swimlaneBody=0;top=0;left=0;bottom=0;right=0;collapsible=0;dropTarget=0;fillColor=none;points=[[0,0.5],[1,0.5]];portConstraint=eastwest;strokeColor=inherit;fontSize=16;" vertex="1" parent="ExoKTfsHEBWrrc_0hEHO-38">
          <mxGeometry y="210" width="200" height="30" as="geometry" />
        </mxCell>
        <mxCell id="ExoKTfsHEBWrrc_0hEHO-58" style="shape=partialRectangle;html=1;whiteSpace=wrap;connectable=0;fillColor=none;top=0;left=0;bottom=0;right=0;overflow=hidden;strokeColor=inherit;fontSize=16;" vertex="1" parent="ExoKTfsHEBWrrc_0hEHO-57">
          <mxGeometry width="44" height="30" as="geometry">
            <mxRectangle width="44" height="30" as="alternateBounds" />
          </mxGeometry>
        </mxCell>
        <mxCell id="ExoKTfsHEBWrrc_0hEHO-59" value="subcategory" style="shape=partialRectangle;html=1;whiteSpace=wrap;connectable=0;fillColor=none;top=0;left=0;bottom=0;right=0;align=left;spacingLeft=6;overflow=hidden;strokeColor=inherit;fontSize=16;" vertex="1" parent="ExoKTfsHEBWrrc_0hEHO-57">
          <mxGeometry x="44" width="156" height="30" as="geometry">
            <mxRectangle width="156" height="30" as="alternateBounds" />
          </mxGeometry>
        </mxCell>
        <mxCell id="ExoKTfsHEBWrrc_0hEHO-60" style="shape=tableRow;horizontal=0;startSize=0;swimlaneHead=0;swimlaneBody=0;top=0;left=0;bottom=0;right=0;collapsible=0;dropTarget=0;fillColor=none;points=[[0,0.5],[1,0.5]];portConstraint=eastwest;strokeColor=inherit;fontSize=16;" vertex="1" parent="ExoKTfsHEBWrrc_0hEHO-38">
          <mxGeometry y="240" width="200" height="30" as="geometry" />
        </mxCell>
        <mxCell id="ExoKTfsHEBWrrc_0hEHO-61" style="shape=partialRectangle;html=1;whiteSpace=wrap;connectable=0;fillColor=none;top=0;left=0;bottom=0;right=0;overflow=hidden;strokeColor=inherit;fontSize=16;" vertex="1" parent="ExoKTfsHEBWrrc_0hEHO-60">
          <mxGeometry width="44" height="30" as="geometry">
            <mxRectangle width="44" height="30" as="alternateBounds" />
          </mxGeometry>
        </mxCell>
        <mxCell id="ExoKTfsHEBWrrc_0hEHO-62" value="maintenance" style="shape=partialRectangle;html=1;whiteSpace=wrap;connectable=0;fillColor=none;top=0;left=0;bottom=0;right=0;align=left;spacingLeft=6;overflow=hidden;strokeColor=inherit;fontSize=16;" vertex="1" parent="ExoKTfsHEBWrrc_0hEHO-60">
          <mxGeometry x="44" width="156" height="30" as="geometry">
            <mxRectangle width="156" height="30" as="alternateBounds" />
          </mxGeometry>
        </mxCell>
        <mxCell id="ExoKTfsHEBWrrc_0hEHO-63" style="shape=tableRow;horizontal=0;startSize=0;swimlaneHead=0;swimlaneBody=0;top=0;left=0;bottom=0;right=0;collapsible=0;dropTarget=0;fillColor=none;points=[[0,0.5],[1,0.5]];portConstraint=eastwest;strokeColor=inherit;fontSize=16;" vertex="1" parent="ExoKTfsHEBWrrc_0hEHO-38">
          <mxGeometry y="270" width="200" height="30" as="geometry" />
        </mxCell>
        <mxCell id="ExoKTfsHEBWrrc_0hEHO-64" style="shape=partialRectangle;html=1;whiteSpace=wrap;connectable=0;fillColor=none;top=0;left=0;bottom=0;right=0;overflow=hidden;strokeColor=inherit;fontSize=16;" vertex="1" parent="ExoKTfsHEBWrrc_0hEHO-63">
          <mxGeometry width="44" height="30" as="geometry">
            <mxRectangle width="44" height="30" as="alternateBounds" />
          </mxGeometry>
        </mxCell>
        <mxCell id="ExoKTfsHEBWrrc_0hEHO-65" value="cost" style="shape=partialRectangle;html=1;whiteSpace=wrap;connectable=0;fillColor=none;top=0;left=0;bottom=0;right=0;align=left;spacingLeft=6;overflow=hidden;strokeColor=inherit;fontSize=16;" vertex="1" parent="ExoKTfsHEBWrrc_0hEHO-63">
          <mxGeometry x="44" width="156" height="30" as="geometry">
            <mxRectangle width="156" height="30" as="alternateBounds" />
          </mxGeometry>
        </mxCell>
        <mxCell id="ExoKTfsHEBWrrc_0hEHO-66" style="shape=tableRow;horizontal=0;startSize=0;swimlaneHead=0;swimlaneBody=0;top=0;left=0;bottom=0;right=0;collapsible=0;dropTarget=0;fillColor=none;points=[[0,0.5],[1,0.5]];portConstraint=eastwest;strokeColor=inherit;fontSize=16;" vertex="1" parent="ExoKTfsHEBWrrc_0hEHO-38">
          <mxGeometry y="300" width="200" height="30" as="geometry" />
        </mxCell>
        <mxCell id="ExoKTfsHEBWrrc_0hEHO-67" style="shape=partialRectangle;html=1;whiteSpace=wrap;connectable=0;fillColor=none;top=0;left=0;bottom=0;right=0;overflow=hidden;strokeColor=inherit;fontSize=16;" vertex="1" parent="ExoKTfsHEBWrrc_0hEHO-66">
          <mxGeometry width="44" height="30" as="geometry">
            <mxRectangle width="44" height="30" as="alternateBounds" />
          </mxGeometry>
        </mxCell>
        <mxCell id="ExoKTfsHEBWrrc_0hEHO-68" value="product_line" style="shape=partialRectangle;html=1;whiteSpace=wrap;connectable=0;fillColor=none;top=0;left=0;bottom=0;right=0;align=left;spacingLeft=6;overflow=hidden;strokeColor=inherit;fontSize=16;" vertex="1" parent="ExoKTfsHEBWrrc_0hEHO-66">
          <mxGeometry x="44" width="156" height="30" as="geometry">
            <mxRectangle width="156" height="30" as="alternateBounds" />
          </mxGeometry>
        </mxCell>
        <mxCell id="ExoKTfsHEBWrrc_0hEHO-69" style="shape=tableRow;horizontal=0;startSize=0;swimlaneHead=0;swimlaneBody=0;top=0;left=0;bottom=0;right=0;collapsible=0;dropTarget=0;fillColor=none;points=[[0,0.5],[1,0.5]];portConstraint=eastwest;strokeColor=inherit;fontSize=16;" vertex="1" parent="ExoKTfsHEBWrrc_0hEHO-38">
          <mxGeometry y="330" width="200" height="30" as="geometry" />
        </mxCell>
        <mxCell id="ExoKTfsHEBWrrc_0hEHO-70" style="shape=partialRectangle;html=1;whiteSpace=wrap;connectable=0;fillColor=none;top=0;left=0;bottom=0;right=0;overflow=hidden;strokeColor=inherit;fontSize=16;" vertex="1" parent="ExoKTfsHEBWrrc_0hEHO-69">
          <mxGeometry width="44" height="30" as="geometry">
            <mxRectangle width="44" height="30" as="alternateBounds" />
          </mxGeometry>
        </mxCell>
        <mxCell id="ExoKTfsHEBWrrc_0hEHO-71" value="start_date" style="shape=partialRectangle;html=1;whiteSpace=wrap;connectable=0;fillColor=none;top=0;left=0;bottom=0;right=0;align=left;spacingLeft=6;overflow=hidden;strokeColor=inherit;fontSize=16;" vertex="1" parent="ExoKTfsHEBWrrc_0hEHO-69">
          <mxGeometry x="44" width="156" height="30" as="geometry">
            <mxRectangle width="156" height="30" as="alternateBounds" />
          </mxGeometry>
        </mxCell>
        <mxCell id="ExoKTfsHEBWrrc_0hEHO-72" value="gold.fact_sales" style="shape=table;startSize=30;container=1;collapsible=0;childLayout=tableLayout;fixedRows=1;rowLines=0;fontStyle=0;strokeColor=#10739e;fontSize=16;fillColor=#b1ddf0;fontColor=#000000;" vertex="1" parent="1">
          <mxGeometry x="330" y="75" width="200" height="300" as="geometry" />
        </mxCell>
        <mxCell id="ExoKTfsHEBWrrc_0hEHO-73" value="" style="shape=tableRow;horizontal=0;startSize=0;swimlaneHead=0;swimlaneBody=0;top=0;left=0;bottom=0;right=0;collapsible=0;dropTarget=0;fillColor=none;points=[[0,0.5],[1,0.5]];portConstraint=eastwest;strokeColor=inherit;fontSize=16;" vertex="1" parent="ExoKTfsHEBWrrc_0hEHO-72">
          <mxGeometry y="30" width="200" height="30" as="geometry" />
        </mxCell>
        <mxCell id="ExoKTfsHEBWrrc_0hEHO-74" value="" style="shape=partialRectangle;html=1;whiteSpace=wrap;connectable=0;fillColor=none;top=0;left=0;bottom=0;right=0;overflow=hidden;pointerEvents=1;strokeColor=inherit;fontSize=16;" vertex="1" parent="ExoKTfsHEBWrrc_0hEHO-73">
          <mxGeometry width="44" height="30" as="geometry">
            <mxRectangle width="44" height="30" as="alternateBounds" />
          </mxGeometry>
        </mxCell>
        <mxCell id="ExoKTfsHEBWrrc_0hEHO-75" value="order_number" style="shape=partialRectangle;html=1;whiteSpace=wrap;connectable=0;fillColor=none;top=0;left=0;bottom=0;right=0;align=left;spacingLeft=6;overflow=hidden;strokeColor=inherit;fontSize=16;" vertex="1" parent="ExoKTfsHEBWrrc_0hEHO-73">
          <mxGeometry x="44" width="156" height="30" as="geometry">
            <mxRectangle width="156" height="30" as="alternateBounds" />
          </mxGeometry>
        </mxCell>
        <mxCell id="ExoKTfsHEBWrrc_0hEHO-76" style="shape=tableRow;horizontal=0;startSize=0;swimlaneHead=0;swimlaneBody=0;top=0;left=0;bottom=0;right=0;collapsible=0;dropTarget=0;fillColor=none;points=[[0,0.5],[1,0.5]];portConstraint=eastwest;strokeColor=inherit;fontSize=16;" vertex="1" parent="ExoKTfsHEBWrrc_0hEHO-72">
          <mxGeometry y="60" width="200" height="30" as="geometry" />
        </mxCell>
        <mxCell id="ExoKTfsHEBWrrc_0hEHO-77" value="FK1" style="shape=partialRectangle;html=1;whiteSpace=wrap;connectable=0;fillColor=none;top=0;left=0;bottom=0;right=0;overflow=hidden;pointerEvents=1;strokeColor=inherit;fontSize=16;" vertex="1" parent="ExoKTfsHEBWrrc_0hEHO-76">
          <mxGeometry width="44" height="30" as="geometry">
            <mxRectangle width="44" height="30" as="alternateBounds" />
          </mxGeometry>
        </mxCell>
        <mxCell id="ExoKTfsHEBWrrc_0hEHO-78" value="product_key" style="shape=partialRectangle;html=1;whiteSpace=wrap;connectable=0;fillColor=none;top=0;left=0;bottom=0;right=0;align=left;spacingLeft=6;overflow=hidden;strokeColor=inherit;fontSize=16;" vertex="1" parent="ExoKTfsHEBWrrc_0hEHO-76">
          <mxGeometry x="44" width="156" height="30" as="geometry">
            <mxRectangle width="156" height="30" as="alternateBounds" />
          </mxGeometry>
        </mxCell>
        <mxCell id="ExoKTfsHEBWrrc_0hEHO-79" value="" style="shape=tableRow;horizontal=0;startSize=0;swimlaneHead=0;swimlaneBody=0;top=0;left=0;bottom=0;right=0;collapsible=0;dropTarget=0;fillColor=none;points=[[0,0.5],[1,0.5]];portConstraint=eastwest;strokeColor=inherit;fontSize=16;" vertex="1" parent="ExoKTfsHEBWrrc_0hEHO-72">
          <mxGeometry y="90" width="200" height="30" as="geometry" />
        </mxCell>
        <mxCell id="ExoKTfsHEBWrrc_0hEHO-80" value="FK2" style="shape=partialRectangle;html=1;whiteSpace=wrap;connectable=0;fillColor=none;top=0;left=0;bottom=0;right=0;overflow=hidden;strokeColor=inherit;fontSize=16;" vertex="1" parent="ExoKTfsHEBWrrc_0hEHO-79">
          <mxGeometry width="44" height="30" as="geometry">
            <mxRectangle width="44" height="30" as="alternateBounds" />
          </mxGeometry>
        </mxCell>
        <mxCell id="ExoKTfsHEBWrrc_0hEHO-81" value="customer_key" style="shape=partialRectangle;html=1;whiteSpace=wrap;connectable=0;fillColor=none;top=0;left=0;bottom=0;right=0;align=left;spacingLeft=6;overflow=hidden;strokeColor=inherit;fontSize=16;" vertex="1" parent="ExoKTfsHEBWrrc_0hEHO-79">
          <mxGeometry x="44" width="156" height="30" as="geometry">
            <mxRectangle width="156" height="30" as="alternateBounds" />
          </mxGeometry>
        </mxCell>
        <mxCell id="ExoKTfsHEBWrrc_0hEHO-82" style="shape=tableRow;horizontal=0;startSize=0;swimlaneHead=0;swimlaneBody=0;top=0;left=0;bottom=0;right=0;collapsible=0;dropTarget=0;fillColor=none;points=[[0,0.5],[1,0.5]];portConstraint=eastwest;strokeColor=inherit;fontSize=16;" vertex="1" parent="ExoKTfsHEBWrrc_0hEHO-72">
          <mxGeometry y="120" width="200" height="30" as="geometry" />
        </mxCell>
        <mxCell id="ExoKTfsHEBWrrc_0hEHO-83" style="shape=partialRectangle;html=1;whiteSpace=wrap;connectable=0;fillColor=none;top=0;left=0;bottom=0;right=0;overflow=hidden;strokeColor=inherit;fontSize=16;" vertex="1" parent="ExoKTfsHEBWrrc_0hEHO-82">
          <mxGeometry width="44" height="30" as="geometry">
            <mxRectangle width="44" height="30" as="alternateBounds" />
          </mxGeometry>
        </mxCell>
        <mxCell id="ExoKTfsHEBWrrc_0hEHO-84" value="order_date" style="shape=partialRectangle;html=1;whiteSpace=wrap;connectable=0;fillColor=none;top=0;left=0;bottom=0;right=0;align=left;spacingLeft=6;overflow=hidden;strokeColor=inherit;fontSize=16;" vertex="1" parent="ExoKTfsHEBWrrc_0hEHO-82">
          <mxGeometry x="44" width="156" height="30" as="geometry">
            <mxRectangle width="156" height="30" as="alternateBounds" />
          </mxGeometry>
        </mxCell>
        <mxCell id="ExoKTfsHEBWrrc_0hEHO-85" style="shape=tableRow;horizontal=0;startSize=0;swimlaneHead=0;swimlaneBody=0;top=0;left=0;bottom=0;right=0;collapsible=0;dropTarget=0;fillColor=none;points=[[0,0.5],[1,0.5]];portConstraint=eastwest;strokeColor=inherit;fontSize=16;" vertex="1" parent="ExoKTfsHEBWrrc_0hEHO-72">
          <mxGeometry y="150" width="200" height="30" as="geometry" />
        </mxCell>
        <mxCell id="ExoKTfsHEBWrrc_0hEHO-86" style="shape=partialRectangle;html=1;whiteSpace=wrap;connectable=0;fillColor=none;top=0;left=0;bottom=0;right=0;overflow=hidden;strokeColor=inherit;fontSize=16;" vertex="1" parent="ExoKTfsHEBWrrc_0hEHO-85">
          <mxGeometry width="44" height="30" as="geometry">
            <mxRectangle width="44" height="30" as="alternateBounds" />
          </mxGeometry>
        </mxCell>
        <mxCell id="ExoKTfsHEBWrrc_0hEHO-87" value="shipping_date" style="shape=partialRectangle;html=1;whiteSpace=wrap;connectable=0;fillColor=none;top=0;left=0;bottom=0;right=0;align=left;spacingLeft=6;overflow=hidden;strokeColor=inherit;fontSize=16;" vertex="1" parent="ExoKTfsHEBWrrc_0hEHO-85">
          <mxGeometry x="44" width="156" height="30" as="geometry">
            <mxRectangle width="156" height="30" as="alternateBounds" />
          </mxGeometry>
        </mxCell>
        <mxCell id="ExoKTfsHEBWrrc_0hEHO-88" style="shape=tableRow;horizontal=0;startSize=0;swimlaneHead=0;swimlaneBody=0;top=0;left=0;bottom=0;right=0;collapsible=0;dropTarget=0;fillColor=none;points=[[0,0.5],[1,0.5]];portConstraint=eastwest;strokeColor=inherit;fontSize=16;" vertex="1" parent="ExoKTfsHEBWrrc_0hEHO-72">
          <mxGeometry y="180" width="200" height="30" as="geometry" />
        </mxCell>
        <mxCell id="ExoKTfsHEBWrrc_0hEHO-89" style="shape=partialRectangle;html=1;whiteSpace=wrap;connectable=0;fillColor=none;top=0;left=0;bottom=0;right=0;overflow=hidden;strokeColor=inherit;fontSize=16;" vertex="1" parent="ExoKTfsHEBWrrc_0hEHO-88">
          <mxGeometry width="44" height="30" as="geometry">
            <mxRectangle width="44" height="30" as="alternateBounds" />
          </mxGeometry>
        </mxCell>
        <mxCell id="ExoKTfsHEBWrrc_0hEHO-90" value="due_date" style="shape=partialRectangle;html=1;whiteSpace=wrap;connectable=0;fillColor=none;top=0;left=0;bottom=0;right=0;align=left;spacingLeft=6;overflow=hidden;strokeColor=inherit;fontSize=16;" vertex="1" parent="ExoKTfsHEBWrrc_0hEHO-88">
          <mxGeometry x="44" width="156" height="30" as="geometry">
            <mxRectangle width="156" height="30" as="alternateBounds" />
          </mxGeometry>
        </mxCell>
        <mxCell id="ExoKTfsHEBWrrc_0hEHO-91" style="shape=tableRow;horizontal=0;startSize=0;swimlaneHead=0;swimlaneBody=0;top=0;left=0;bottom=0;right=0;collapsible=0;dropTarget=0;fillColor=none;points=[[0,0.5],[1,0.5]];portConstraint=eastwest;strokeColor=inherit;fontSize=16;" vertex="1" parent="ExoKTfsHEBWrrc_0hEHO-72">
          <mxGeometry y="210" width="200" height="30" as="geometry" />
        </mxCell>
        <mxCell id="ExoKTfsHEBWrrc_0hEHO-92" style="shape=partialRectangle;html=1;whiteSpace=wrap;connectable=0;fillColor=none;top=0;left=0;bottom=0;right=0;overflow=hidden;strokeColor=inherit;fontSize=16;" vertex="1" parent="ExoKTfsHEBWrrc_0hEHO-91">
          <mxGeometry width="44" height="30" as="geometry">
            <mxRectangle width="44" height="30" as="alternateBounds" />
          </mxGeometry>
        </mxCell>
        <mxCell id="ExoKTfsHEBWrrc_0hEHO-93" value="sales_amount" style="shape=partialRectangle;html=1;whiteSpace=wrap;connectable=0;fillColor=none;top=0;left=0;bottom=0;right=0;align=left;spacingLeft=6;overflow=hidden;strokeColor=inherit;fontSize=16;" vertex="1" parent="ExoKTfsHEBWrrc_0hEHO-91">
          <mxGeometry x="44" width="156" height="30" as="geometry">
            <mxRectangle width="156" height="30" as="alternateBounds" />
          </mxGeometry>
        </mxCell>
        <mxCell id="ExoKTfsHEBWrrc_0hEHO-94" style="shape=tableRow;horizontal=0;startSize=0;swimlaneHead=0;swimlaneBody=0;top=0;left=0;bottom=0;right=0;collapsible=0;dropTarget=0;fillColor=none;points=[[0,0.5],[1,0.5]];portConstraint=eastwest;strokeColor=inherit;fontSize=16;" vertex="1" parent="ExoKTfsHEBWrrc_0hEHO-72">
          <mxGeometry y="240" width="200" height="30" as="geometry" />
        </mxCell>
        <mxCell id="ExoKTfsHEBWrrc_0hEHO-95" style="shape=partialRectangle;html=1;whiteSpace=wrap;connectable=0;fillColor=none;top=0;left=0;bottom=0;right=0;overflow=hidden;strokeColor=inherit;fontSize=16;" vertex="1" parent="ExoKTfsHEBWrrc_0hEHO-94">
          <mxGeometry width="44" height="30" as="geometry">
            <mxRectangle width="44" height="30" as="alternateBounds" />
          </mxGeometry>
        </mxCell>
        <mxCell id="ExoKTfsHEBWrrc_0hEHO-96" value="quantity" style="shape=partialRectangle;html=1;whiteSpace=wrap;connectable=0;fillColor=none;top=0;left=0;bottom=0;right=0;align=left;spacingLeft=6;overflow=hidden;strokeColor=inherit;fontSize=16;" vertex="1" parent="ExoKTfsHEBWrrc_0hEHO-94">
          <mxGeometry x="44" width="156" height="30" as="geometry">
            <mxRectangle width="156" height="30" as="alternateBounds" />
          </mxGeometry>
        </mxCell>
        <mxCell id="ExoKTfsHEBWrrc_0hEHO-97" style="shape=tableRow;horizontal=0;startSize=0;swimlaneHead=0;swimlaneBody=0;top=0;left=0;bottom=0;right=0;collapsible=0;dropTarget=0;fillColor=none;points=[[0,0.5],[1,0.5]];portConstraint=eastwest;strokeColor=inherit;fontSize=16;" vertex="1" parent="ExoKTfsHEBWrrc_0hEHO-72">
          <mxGeometry y="270" width="200" height="30" as="geometry" />
        </mxCell>
        <mxCell id="ExoKTfsHEBWrrc_0hEHO-98" style="shape=partialRectangle;html=1;whiteSpace=wrap;connectable=0;fillColor=none;top=0;left=0;bottom=0;right=0;overflow=hidden;strokeColor=inherit;fontSize=16;" vertex="1" parent="ExoKTfsHEBWrrc_0hEHO-97">
          <mxGeometry width="44" height="30" as="geometry">
            <mxRectangle width="44" height="30" as="alternateBounds" />
          </mxGeometry>
        </mxCell>
        <mxCell id="ExoKTfsHEBWrrc_0hEHO-99" value="price" style="shape=partialRectangle;html=1;whiteSpace=wrap;connectable=0;fillColor=none;top=0;left=0;bottom=0;right=0;align=left;spacingLeft=6;overflow=hidden;strokeColor=inherit;fontSize=16;" vertex="1" parent="ExoKTfsHEBWrrc_0hEHO-97">
          <mxGeometry x="44" width="156" height="30" as="geometry">
            <mxRectangle width="156" height="30" as="alternateBounds" />
          </mxGeometry>
        </mxCell>
        <mxCell id="ExoKTfsHEBWrrc_0hEHO-106" value="" style="edgeStyle=entityRelationEdgeStyle;fontSize=12;html=1;endArrow=ERzeroToMany;endFill=1;rounded=0;exitX=1;exitY=0.5;exitDx=0;exitDy=0;entryX=0;entryY=0.5;entryDx=0;entryDy=0;" edge="1" parent="1" source="ExoKTfsHEBWrrc_0hEHO-2" target="ExoKTfsHEBWrrc_0hEHO-79">
          <mxGeometry width="100" height="100" relative="1" as="geometry">
            <mxPoint x="300" y="230" as="sourcePoint" />
            <mxPoint x="330" y="170" as="targetPoint" />
          </mxGeometry>
        </mxCell>
        <mxCell id="ExoKTfsHEBWrrc_0hEHO-107" value="" style="edgeStyle=entityRelationEdgeStyle;fontSize=12;html=1;endArrow=ERzeroToMany;endFill=1;rounded=0;exitX=0;exitY=0.5;exitDx=0;exitDy=0;entryX=1;entryY=0.5;entryDx=0;entryDy=0;" edge="1" parent="1" source="ExoKTfsHEBWrrc_0hEHO-39" target="ExoKTfsHEBWrrc_0hEHO-76">
          <mxGeometry width="100" height="100" relative="1" as="geometry">
            <mxPoint x="524" y="130" as="sourcePoint" />
            <mxPoint x="584" y="195" as="targetPoint" />
          </mxGeometry>
        </mxCell>
        <mxCell id="ExoKTfsHEBWrrc_0hEHO-108" value="&lt;h1 style=&quot;margin-top: 0px;&quot;&gt;&lt;font style=&quot;font-size: 16px;&quot;&gt;Sales Calculation&lt;/font&gt;&lt;/h1&gt;&lt;div&gt;&lt;font style=&quot;font-size: 13px;&quot;&gt;Sales = Quantity * Price&lt;/font&gt;&lt;/div&gt;" style="text;html=1;whiteSpace=wrap;overflow=hidden;rounded=0;" vertex="1" parent="1">
          <mxGeometry x="350" y="400" width="180" height="120" as="geometry" />
        </mxCell>
        <mxCell id="ExoKTfsHEBWrrc_0hEHO-109" value="" style="endArrow=none;dashed=1;html=1;dashPattern=1 3;strokeWidth=2;rounded=0;" edge="1" parent="1">
          <mxGeometry width="50" height="50" relative="1" as="geometry">
            <mxPoint x="470" y="310" as="sourcePoint" />
            <mxPoint x="460" y="410" as="targetPoint" />
          </mxGeometry>
        </mxCell>
      </root>
    </mxGraphModel>
  </diagram>
</mxfile>
